{
  "start_time": "2025-09-01T21:41:38.7069535+08:00",
  "end_time": "2025-09-01T21:42:03.281775+08:00",
  "duration": 24574821500,
  "source_directory": "/Users/nameko_1/Downloads/test/pkg/converter/test_integration",
  "total_files": 5,
  "processed_files": 5,
  "successful_files": 0,
  "failed_files": 5,
  "skipped_files": 0,
  "total_size_before": 130,
  "total_size_after": 0,
  "space_saved": 130,
  "compression_ratio": 100,
  "conversion_mode": "auto+",
  "file_details": [
    {
      "original_path": "/Users/nameko_1/Downloads/test/pkg/converter/test_integration/test_1.jpg",
      "output_path": "",
      "original_size": 26,
      "output_size": 0,
      "compression_ratio": 0,
      "original_format": ".jpg",
      "output_format": "",
      "processing_time": 12215832875,
      "method": "image_conversion",
      "success": false,
      "error": "both cjxl and FFmpeg lossless JXL conversion failed: exit status 69, output: ffmpeg version 8.0 Copyright (c) 2000-2025 the FFmpeg developers\n  built with Apple clang version 17.0.0 (clang-1700.0.13.3)\n  configuration: --prefix=/opt/homebrew/Cellar/ffmpeg/8.0 --enable-shared --enable-pthreads --enable-version3 --cc=clang --host-cflags= --host-ldflags='-Wl,-ld_classic' --enable-ffplay --enable-gnutls --enable-gpl --enable-libaom --enable-libaribb24 --enable-libbluray --enable-libdav1d --enable-libharfbuzz --enable-libjxl --enable-libmp3lame --enable-libopus --enable-librav1e --enable-librist --enable-librubberband --enable-libsnappy --enable-libsrt --enable-libssh --enable-libsvtav1 --enable-libtesseract --enable-libtheora --enable-libvidstab --enable-libvmaf --enable-libvorbis --enable-libvpx --enable-libwebp --enable-libx264 --enable-libx265 --enable-libxml2 --enable-libxvid --enable-lzma --enable-libfontconfig --enable-libfreetype --enable-frei0r --enable-libass --enable-libopencore-amrnb --enable-libopencore-amrwb --enable-libopenjpeg --enable-libspeex --enable-libsoxr --enable-libzmq --enable-libzimg --disable-libjack --disable-indev=jack --enable-videotoolbox --enable-audiotoolbox --enable-neon\n  libavutil      60.  8.100 / 60.  8.100\n  libavcodec     62. 11.100 / 62. 11.100\n  libavformat    62.  3.100 / 62.  3.100\n  libavdevice    62.  1.100 / 62.  1.100\n  libavfilter    11.  4.100 / 11.  4.100\n  libswscale      9.  1.100 /  9.  1.100\n  libswresample   6.  1.100 /  6.  1.100\n[mjpeg @ 0x913034380] No JPEG data found in image\n[image2 @ 0x913030000] Could not find codec parameters for stream 0 (Video: mjpeg, none(bt470bg/unknown/unknown)): unspecified size\nConsider increasing the value for the 'analyzeduration' (0) and 'probesize' (5000000) options\nInput #0, image2, from '/Users/nameko_1/Downloads/test/pkg/converter/test_integration/test_1.jpg':\n  Duration: 00:00:00.04, start: 0.000000, bitrate: 5 kb/s\n  Stream #0:0: Video: mjpeg, none(bt470bg/unknown/unknown), 25 fps, 25 tbr, 25 tbn\nStream mapping:\n  Stream #0:0 -\u003e #0:0 (mjpeg (native) -\u003e jpegxl (libjxl))\nPress [q] to stop, [?] for help\n[mjpeg @ 0x913034e00] No JPEG data found in image\n[vist#0:0/mjpeg @ 0x913028300] [dec:mjpeg @ 0x91302c280] Error submitting packet to decoder: Invalid data found when processing input\n[vist#0:0/mjpeg @ 0x913028300] [dec:mjpeg @ 0x91302c280] Decode error rate 1 exceeds maximum 0.666667\n[vf#0:0 @ 0x912c70500] Cannot determine format of input 0:0 after EOF\n[vf#0:0 @ 0x912c70500] Task finished with error code: -1094995529 (Invalid data found when processing input)\n[vist#0:0/mjpeg @ 0x913028300] [dec:mjpeg @ 0x91302c280] Task finished with error code: -1145393733 (Error number -1145393733 occurred)\n[vf#0:0 @ 0x912c70500] Terminating thread with return code -1094995529 (Invalid data found when processing input)\n[vist#0:0/mjpeg @ 0x913028300] [dec:mjpeg @ 0x91302c280] Terminating thread with return code -1145393733 (Error number -1145393733 occurred)\n[vost#0:0/libjxl @ 0x912ca0000] [enc:libjxl @ 0x912c09570] Could not open encoder before EOF\n[vost#0:0/libjxl @ 0x912ca0000] Task finished with error code: -22 (Invalid argument)\n[vost#0:0/libjxl @ 0x912ca0000] Terminating thread with return code -22 (Invalid argument)\n[out#0/image2 @ 0x912c0c780] Nothing was written into output file, because at least one of its streams received no packets.\nframe=    0 fps=0.0 q=0.0 Lsize=       0KiB time=N/A bitrate=N/A speed=N/A elapsed=0:00:00.00    \nConversion failed!\n"
    },
    {
      "original_path": "/Users/nameko_1/Downloads/test/pkg/converter/test_integration/test_3.jpg",
      "output_path": "",
      "original_size": 26,
      "output_size": 0,
      "compression_ratio": 0,
      "original_format": ".jpg",
      "output_format": "",
      "processing_time": 12215853375,
      "method": "image_conversion",
      "success": false,
      "error": "both cjxl and FFmpeg lossless JXL conversion failed: exit status 69, output: ffmpeg version 8.0 Copyright (c) 2000-2025 the FFmpeg developers\n  built with Apple clang version 17.0.0 (clang-1700.0.13.3)\n  configuration: --prefix=/opt/homebrew/Cellar/ffmpeg/8.0 --enable-shared --enable-pthreads --enable-version3 --cc=clang --host-cflags= --host-ldflags='-Wl,-ld_classic' --enable-ffplay --enable-gnutls --enable-gpl --enable-libaom --enable-libaribb24 --enable-libbluray --enable-libdav1d --enable-libharfbuzz --enable-libjxl --enable-libmp3lame --enable-libopus --enable-librav1e --enable-librist --enable-librubberband --enable-libsnappy --enable-libsrt --enable-libssh --enable-libsvtav1 --enable-libtesseract --enable-libtheora --enable-libvidstab --enable-libvmaf --enable-libvorbis --enable-libvpx --enable-libwebp --enable-libx264 --enable-libx265 --enable-libxml2 --enable-libxvid --enable-lzma --enable-libfontconfig --enable-libfreetype --enable-frei0r --enable-libass --enable-libopencore-amrnb --enable-libopencore-amrwb --enable-libopenjpeg --enable-libspeex --enable-libsoxr --enable-libzmq --enable-libzimg --disable-libjack --disable-indev=jack --enable-videotoolbox --enable-audiotoolbox --enable-neon\n  libavutil      60.  8.100 / 60.  8.100\n  libavcodec     62. 11.100 / 62. 11.100\n  libavformat    62.  3.100 / 62.  3.100\n  libavdevice    62.  1.100 / 62.  1.100\n  libavfilter    11.  4.100 / 11.  4.100\n  libswscale      9.  1.100 /  9.  1.100\n  libswresample   6.  1.100 /  6.  1.100\n[mjpeg @ 0x87d06c380] No JPEG data found in image\n[image2 @ 0x87d040000] Could not find codec parameters for stream 0 (Video: mjpeg, none(bt470bg/unknown/unknown)): unspecified size\nConsider increasing the value for the 'analyzeduration' (0) and 'probesize' (5000000) options\nInput #0, image2, from '/Users/nameko_1/Downloads/test/pkg/converter/test_integration/test_3.jpg':\n  Duration: 00:00:00.04, start: 0.000000, bitrate: 5 kb/s\n  Stream #0:0: Video: mjpeg, none(bt470bg/unknown/unknown), 25 fps, 25 tbr, 25 tbn\nStream mapping:\n  Stream #0:0 -\u003e #0:0 (mjpeg (native) -\u003e jpegxl (libjxl))\nPress [q] to stop, [?] for help\n[mjpeg @ 0x87d06ce00] No JPEG data found in image\n[vist#0:0/mjpeg @ 0x87cc40300] [dec:mjpeg @ 0x87d038280] Error submitting packet to decoder: Invalid data found when processing input\n[vist#0:0/mjpeg @ 0x87cc40300] [dec:mjpeg @ 0x87d038280] Decode error rate 1 exceeds maximum 0.666667\n[vf#0:0 @ 0x87cc44500] Cannot determine format of input 0:0 after EOF\n[vf#0:0 @ 0x87cc44500] Task finished with error code: -1094995529 (Invalid data found when processing input)\n[vist#0:0/mjpeg @ 0x87cc40300] [dec:mjpeg @ 0x87d038280] Task finished with error code: -1145393733 (Error number -1145393733 occurred)\n[vf#0:0 @ 0x87cc44500] Terminating thread with return code -1094995529 (Invalid data found when processing input)\n[vost#0:0/libjxl @ 0x87d09c000] [enc:libjxl @ 0x87d03c1c0] Could not open encoder before EOF\n[vost#0:0/libjxl @ 0x87d09c000] Task finished with error code: -22 (Invalid argument)\n[vost#0:0/libjxl @ 0x87d09c000] Terminating thread with return code -22 (Invalid argument)\n[vist#0:0/mjpeg @ 0x87cc40300] [dec:mjpeg @ 0x87d038280] Terminating thread with return code -1145393733 (Error number -1145393733 occurred)\n[out#0/image2 @ 0x87d044240] Nothing was written into output file, because at least one of its streams received no packets.\nframe=    0 fps=0.0 q=0.0 Lsize=       0KiB time=N/A bitrate=N/A speed=N/A elapsed=0:00:00.00    \nConversion failed!\n"
    },
    {
      "original_path": "/Users/nameko_1/Downloads/test/pkg/converter/test_integration/test_0.jpg",
      "output_path": "",
      "original_size": 26,
      "output_size": 0,
      "compression_ratio": 0,
      "original_format": ".jpg",
      "output_format": "",
      "processing_time": 12215986917,
      "method": "image_conversion",
      "success": false,
      "error": "both cjxl and FFmpeg lossless JXL conversion failed: exit status 69, output: ffmpeg version 8.0 Copyright (c) 2000-2025 the FFmpeg developers\n  built with Apple clang version 17.0.0 (clang-1700.0.13.3)\n  configuration: --prefix=/opt/homebrew/Cellar/ffmpeg/8.0 --enable-shared --enable-pthreads --enable-version3 --cc=clang --host-cflags= --host-ldflags='-Wl,-ld_classic' --enable-ffplay --enable-gnutls --enable-gpl --enable-libaom --enable-libaribb24 --enable-libbluray --enable-libdav1d --enable-libharfbuzz --enable-libjxl --enable-libmp3lame --enable-libopus --enable-librav1e --enable-librist --enable-librubberband --enable-libsnappy --enable-libsrt --enable-libssh --enable-libsvtav1 --enable-libtesseract --enable-libtheora --enable-libvidstab --enable-libvmaf --enable-libvorbis --enable-libvpx --enable-libwebp --enable-libx264 --enable-libx265 --enable-libxml2 --enable-libxvid --enable-lzma --enable-libfontconfig --enable-libfreetype --enable-frei0r --enable-libass --enable-libopencore-amrnb --enable-libopencore-amrwb --enable-libopenjpeg --enable-libspeex --enable-libsoxr --enable-libzmq --enable-libzimg --disable-libjack --disable-indev=jack --enable-videotoolbox --enable-audiotoolbox --enable-neon\n  libavutil      60.  8.100 / 60.  8.100\n  libavcodec     62. 11.100 / 62. 11.100\n  libavformat    62.  3.100 / 62.  3.100\n  libavdevice    62.  1.100 / 62.  1.100\n  libavfilter    11.  4.100 / 11.  4.100\n  libswscale      9.  1.100 /  9.  1.100\n  libswresample   6.  1.100 /  6.  1.100\n[mjpeg @ 0x7a2c50380] No JPEG data found in image\n[image2 @ 0x7a3034000] Could not find codec parameters for stream 0 (Video: mjpeg, none(bt470bg/unknown/unknown)): unspecified size\nConsider increasing the value for the 'analyzeduration' (0) and 'probesize' (5000000) options\nInput #0, image2, from '/Users/nameko_1/Downloads/test/pkg/converter/test_integration/test_0.jpg':\n  Duration: 00:00:00.04, start: 0.000000, bitrate: 5 kb/s\n  Stream #0:0: Video: mjpeg, none(bt470bg/unknown/unknown), 25 fps, 25 tbr, 25 tbn\nStream mapping:\n  Stream #0:0 -\u003e #0:0 (mjpeg (native) -\u003e jpegxl (libjxl))\nPress [q] to stop, [?] for help\n[mjpeg @ 0x7a2c50e00] No JPEG data found in image\n[vist#0:0/mjpeg @ 0x7a2c40300] [dec:mjpeg @ 0x7a3030280] Error submitting packet to decoder: Invalid data found when processing input\n[vist#0:0/mjpeg @ 0x7a2c40300] [dec:mjpeg @ 0x7a3030280] Decode error rate 1 exceeds maximum 0.666667\n[vist#0:0/mjpeg @ 0x7a2c40300] [dec:mjpeg @ 0x7a3030280] Task finished with error code: -1145393733 (Error number -1145393733 occurred)\n[vist#0:0/mjpeg @ 0x7a2c40300] [dec:mjpeg @ 0x7a3030280] Terminating thread with return code -1145393733 (Error number -1145393733 occurred)\n[vf#0:0 @ 0x7a2c38f00] Cannot determine format of input 0:0 after EOF\n[vf#0:0 @ 0x7a2c38f00] Task finished with error code: -1094995529 (Invalid data found when processing input)\n[vf#0:0 @ 0x7a2c38f00] Terminating thread with return code -1094995529 (Invalid data found when processing input)\n[vost#0:0/libjxl @ 0x7a2c80000] [enc:libjxl @ 0x7a2c481c0] Could not open encoder before EOF\n[vost#0:0/libjxl @ 0x7a2c80000] Task finished with error code: -22 (Invalid argument)\n[vost#0:0/libjxl @ 0x7a2c80000] Terminating thread with return code -22 (Invalid argument)\n[out#0/image2 @ 0x7a3028f00] Nothing was written into output file, because at least one of its streams received no packets.\nframe=    0 fps=0.0 q=0.0 Lsize=       0KiB time=N/A bitrate=N/A speed=N/A elapsed=0:00:00.00    \nConversion failed!\n"
    },
    {
      "original_path": "/Users/nameko_1/Downloads/test/pkg/converter/test_integration/test_4.jpg",
      "output_path": "",
      "original_size": 26,
      "output_size": 0,
      "compression_ratio": 0,
      "original_format": ".jpg",
      "output_format": "",
      "processing_time": 12358832334,
      "method": "image_conversion",
      "success": false,
      "error": "both cjxl and FFmpeg lossless JXL conversion failed: exit status 69, output: ffmpeg version 8.0 Copyright (c) 2000-2025 the FFmpeg developers\n  built with Apple clang version 17.0.0 (clang-1700.0.13.3)\n  configuration: --prefix=/opt/homebrew/Cellar/ffmpeg/8.0 --enable-shared --enable-pthreads --enable-version3 --cc=clang --host-cflags= --host-ldflags='-Wl,-ld_classic' --enable-ffplay --enable-gnutls --enable-gpl --enable-libaom --enable-libaribb24 --enable-libbluray --enable-libdav1d --enable-libharfbuzz --enable-libjxl --enable-libmp3lame --enable-libopus --enable-librav1e --enable-librist --enable-librubberband --enable-libsnappy --enable-libsrt --enable-libssh --enable-libsvtav1 --enable-libtesseract --enable-libtheora --enable-libvidstab --enable-libvmaf --enable-libvorbis --enable-libvpx --enable-libwebp --enable-libx264 --enable-libx265 --enable-libxml2 --enable-libxvid --enable-lzma --enable-libfontconfig --enable-libfreetype --enable-frei0r --enable-libass --enable-libopencore-amrnb --enable-libopencore-amrwb --enable-libopenjpeg --enable-libspeex --enable-libsoxr --enable-libzmq --enable-libzimg --disable-libjack --disable-indev=jack --enable-videotoolbox --enable-audiotoolbox --enable-neon\n  libavutil      60.  8.100 / 60.  8.100\n  libavcodec     62. 11.100 / 62. 11.100\n  libavformat    62.  3.100 / 62.  3.100\n  libavdevice    62.  1.100 / 62.  1.100\n  libavfilter    11.  4.100 / 11.  4.100\n  libswscale      9.  1.100 /  9.  1.100\n  libswresample   6.  1.100 /  6.  1.100\n[mjpeg @ 0xc5706c380] No JPEG data found in image\n[image2 @ 0xc57040000] Could not find codec parameters for stream 0 (Video: mjpeg, none(bt470bg/unknown/unknown)): unspecified size\nConsider increasing the value for the 'analyzeduration' (0) and 'probesize' (5000000) options\nInput #0, image2, from '/Users/nameko_1/Downloads/test/pkg/converter/test_integration/test_4.jpg':\n  Duration: 00:00:00.04, start: 0.000000, bitrate: 5 kb/s\n  Stream #0:0: Video: mjpeg, none(bt470bg/unknown/unknown), 25 fps, 25 tbr, 25 tbn\nStream mapping:\n  Stream #0:0 -\u003e #0:0 (mjpeg (native) -\u003e jpegxl (libjxl))\nPress [q] to stop, [?] for help\n[mjpeg @ 0xc5706ce00] No JPEG data found in image\n[vist#0:0/mjpeg @ 0xc56c40300] [dec:mjpeg @ 0xc57038280] Error submitting packet to decoder: Invalid data found when processing input\n[vist#0:0/mjpeg @ 0xc56c40300] [dec:mjpeg @ 0xc57038280] Decode error rate 1 exceeds maximum 0.666667\n[vf#0:0 @ 0xc56c44500] Cannot determine format of input 0:0 after EOF\n[vf#0:0 @ 0xc56c44500] Task finished with error code: -1094995529 (Invalid data found when processing input)\n[vist#0:0/mjpeg @ 0xc56c40300] [dec:mjpeg @ 0xc57038280] Task finished with error code: -1145393733 (Error number -1145393733 occurred)\n[vost#0:0/libjxl @ 0xc57098000] [enc:libjxl @ 0xc5703c1c0] Could not open encoder before EOF\n[vost#0:0/libjxl @ 0xc57098000] Task finished with error code: -22 (Invalid argument)\n[vost#0:0/libjxl @ 0xc57098000] Terminating thread with return code -22 (Invalid argument)\n[vist#0:0/mjpeg @ 0xc56c40300] [dec:mjpeg @ 0xc57038280] Terminating thread with return code -1145393733 (Error number -1145393733 occurred)\n[vf#0:0 @ 0xc56c44500] Terminating thread with return code -1094995529 (Invalid data found when processing input)\n[out#0/image2 @ 0xc57044240] Nothing was written into output file, because at least one of its streams received no packets.\nframe=    0 fps=0.0 q=0.0 Lsize=       0KiB time=N/A bitrate=N/A speed=N/A elapsed=0:00:00.00    \nConversion failed!\n"
    },
    {
      "original_path": "/Users/nameko_1/Downloads/test/pkg/converter/test_integration/test_2.jpg",
      "output_path": "",
      "original_size": 26,
      "output_size": 0,
      "compression_ratio": 0,
      "original_format": ".jpg",
      "output_format": "",
      "processing_time": 12358851750,
      "method": "image_conversion",
      "success": false,
      "error": "both cjxl and FFmpeg lossless JXL conversion failed: exit status 69, output: ffmpeg version 8.0 Copyright (c) 2000-2025 the FFmpeg developers\n  built with Apple clang version 17.0.0 (clang-1700.0.13.3)\n  configuration: --prefix=/opt/homebrew/Cellar/ffmpeg/8.0 --enable-shared --enable-pthreads --enable-version3 --cc=clang --host-cflags= --host-ldflags='-Wl,-ld_classic' --enable-ffplay --enable-gnutls --enable-gpl --enable-libaom --enable-libaribb24 --enable-libbluray --enable-libdav1d --enable-libharfbuzz --enable-libjxl --enable-libmp3lame --enable-libopus --enable-librav1e --enable-librist --enable-librubberband --enable-libsnappy --enable-libsrt --enable-libssh --enable-libsvtav1 --enable-libtesseract --enable-libtheora --enable-libvidstab --enable-libvmaf --enable-libvorbis --enable-libvpx --enable-libwebp --enable-libx264 --enable-libx265 --enable-libxml2 --enable-libxvid --enable-lzma --enable-libfontconfig --enable-libfreetype --enable-frei0r --enable-libass --enable-libopencore-amrnb --enable-libopencore-amrwb --enable-libopenjpeg --enable-libspeex --enable-libsoxr --enable-libzmq --enable-libzimg --disable-libjack --disable-indev=jack --enable-videotoolbox --enable-audiotoolbox --enable-neon\n  libavutil      60.  8.100 / 60.  8.100\n  libavcodec     62. 11.100 / 62. 11.100\n  libavformat    62.  3.100 / 62.  3.100\n  libavdevice    62.  1.100 / 62.  1.100\n  libavfilter    11.  4.100 / 11.  4.100\n  libswscale      9.  1.100 /  9.  1.100\n  libswresample   6.  1.100 /  6.  1.100\n[mjpeg @ 0xc6ac70380] No JPEG data found in image\n[image2 @ 0xc6b014000] Could not find codec parameters for stream 0 (Video: mjpeg, none(bt470bg/unknown/unknown)): unspecified size\nConsider increasing the value for the 'analyzeduration' (0) and 'probesize' (5000000) options\nInput #0, image2, from '/Users/nameko_1/Downloads/test/pkg/converter/test_integration/test_2.jpg':\n  Duration: 00:00:00.04, start: 0.000000, bitrate: 5 kb/s\n  Stream #0:0: Video: mjpeg, none(bt470bg/unknown/unknown), 25 fps, 25 tbr, 25 tbn\nStream mapping:\n  Stream #0:0 -\u003e #0:0 (mjpeg (native) -\u003e jpegxl (libjxl))\nPress [q] to stop, [?] for help\n[mjpeg @ 0xc6ac70e00] No JPEG data found in image\n[vist#0:0/mjpeg @ 0xc6ac60300] [dec:mjpeg @ 0xc6b010280] Error submitting packet to decoder: Invalid data found when processing input\n[vist#0:0/mjpeg @ 0xc6ac60300] [dec:mjpeg @ 0xc6b010280] Decode error rate 1 exceeds maximum 0.666667\n[vist#0:0/mjpeg @ 0xc6ac60300] [dec:mjpeg @ 0xc6b010280] Task finished with error code: -1145393733 (Error number -1145393733 occurred)\n[vf#0:0 @ 0xc6ac58f00] Cannot determine format of input 0:0 after EOF\n[vf#0:0 @ 0xc6ac58f00] Task finished with error code: -1094995529 (Invalid data found when processing input)\n[vf#0:0 @ 0xc6ac58f00] Terminating thread with return code -1094995529 (Invalid data found when processing input)\n[vost#0:0/libjxl @ 0xc6aca0000] [enc:libjxl @ 0xc6ac681c0] Could not open encoder before EOF\n[vost#0:0/libjxl @ 0xc6aca0000] Task finished with error code: -22 (Invalid argument)\n[vost#0:0/libjxl @ 0xc6aca0000] Terminating thread with return code -22 (Invalid argument)\n[vist#0:0/mjpeg @ 0xc6ac60300] [dec:mjpeg @ 0xc6b010280] Terminating thread with return code -1145393733 (Error number -1145393733 occurred)\n[out#0/image2 @ 0xc6b018240] Nothing was written into output file, because at least one of its streams received no packets.\nframe=    0 fps=0.0 q=0.0 Lsize=       0KiB time=N/A bitrate=N/A speed=N/A elapsed=0:00:00.00    \nConversion failed!\n"
    }
  ],
  "format_summary": {},
  "system_info": {
    "os": "darwin",
    "arch": "arm64",
    "cpu_cores": 3,
    "concurrency": 3,
    "memory_used_mb": 0
  },
  "errors": [
    {
      "file": "/Users/nameko_1/Downloads/test/pkg/converter/test_integration/test_1.jpg",
      "error": "both cjxl and FFmpeg lossless JXL conversion failed: exit status 69, output: ffmpeg version 8.0 Copyright (c) 2000-2025 the FFmpeg developers\n  built with Apple clang version 17.0.0 (clang-1700.0.13.3)\n  configuration: --prefix=/opt/homebrew/Cellar/ffmpeg/8.0 --enable-shared --enable-pthreads --enable-version3 --cc=clang --host-cflags= --host-ldflags='-Wl,-ld_classic' --enable-ffplay --enable-gnutls --enable-gpl --enable-libaom --enable-libaribb24 --enable-libbluray --enable-libdav1d --enable-libharfbuzz --enable-libjxl --enable-libmp3lame --enable-libopus --enable-librav1e --enable-librist --enable-librubberband --enable-libsnappy --enable-libsrt --enable-libssh --enable-libsvtav1 --enable-libtesseract --enable-libtheora --enable-libvidstab --enable-libvmaf --enable-libvorbis --enable-libvpx --enable-libwebp --enable-libx264 --enable-libx265 --enable-libxml2 --enable-libxvid --enable-lzma --enable-libfontconfig --enable-libfreetype --enable-frei0r --enable-libass --enable-libopencore-amrnb --enable-libopencore-amrwb --enable-libopenjpeg --enable-libspeex --enable-libsoxr --enable-libzmq --enable-libzimg --disable-libjack --disable-indev=jack --enable-videotoolbox --enable-audiotoolbox --enable-neon\n  libavutil      60.  8.100 / 60.  8.100\n  libavcodec     62. 11.100 / 62. 11.100\n  libavformat    62.  3.100 / 62.  3.100\n  libavdevice    62.  1.100 / 62.  1.100\n  libavfilter    11.  4.100 / 11.  4.100\n  libswscale      9.  1.100 /  9.  1.100\n  libswresample   6.  1.100 /  6.  1.100\n[mjpeg @ 0x913034380] No JPEG data found in image\n[image2 @ 0x913030000] Could not find codec parameters for stream 0 (Video: mjpeg, none(bt470bg/unknown/unknown)): unspecified size\nConsider increasing the value for the 'analyzeduration' (0) and 'probesize' (5000000) options\nInput #0, image2, from '/Users/nameko_1/Downloads/test/pkg/converter/test_integration/test_1.jpg':\n  Duration: 00:00:00.04, start: 0.000000, bitrate: 5 kb/s\n  Stream #0:0: Video: mjpeg, none(bt470bg/unknown/unknown), 25 fps, 25 tbr, 25 tbn\nStream mapping:\n  Stream #0:0 -\u003e #0:0 (mjpeg (native) -\u003e jpegxl (libjxl))\nPress [q] to stop, [?] for help\n[mjpeg @ 0x913034e00] No JPEG data found in image\n[vist#0:0/mjpeg @ 0x913028300] [dec:mjpeg @ 0x91302c280] Error submitting packet to decoder: Invalid data found when processing input\n[vist#0:0/mjpeg @ 0x913028300] [dec:mjpeg @ 0x91302c280] Decode error rate 1 exceeds maximum 0.666667\n[vf#0:0 @ 0x912c70500] Cannot determine format of input 0:0 after EOF\n[vf#0:0 @ 0x912c70500] Task finished with error code: -1094995529 (Invalid data found when processing input)\n[vist#0:0/mjpeg @ 0x913028300] [dec:mjpeg @ 0x91302c280] Task finished with error code: -1145393733 (Error number -1145393733 occurred)\n[vf#0:0 @ 0x912c70500] Terminating thread with return code -1094995529 (Invalid data found when processing input)\n[vist#0:0/mjpeg @ 0x913028300] [dec:mjpeg @ 0x91302c280] Terminating thread with return code -1145393733 (Error number -1145393733 occurred)\n[vost#0:0/libjxl @ 0x912ca0000] [enc:libjxl @ 0x912c09570] Could not open encoder before EOF\n[vost#0:0/libjxl @ 0x912ca0000] Task finished with error code: -22 (Invalid argument)\n[vost#0:0/libjxl @ 0x912ca0000] Terminating thread with return code -22 (Invalid argument)\n[out#0/image2 @ 0x912c0c780] Nothing was written into output file, because at least one of its streams received no packets.\nframe=    0 fps=0.0 q=0.0 Lsize=       0KiB time=N/A bitrate=N/A speed=N/A elapsed=0:00:00.00    \nConversion failed!\n",
      "time": "2025-09-01T21:42:03.281827+08:00"
    },
    {
      "file": "/Users/nameko_1/Downloads/test/pkg/converter/test_integration/test_3.jpg",
      "error": "both cjxl and FFmpeg lossless JXL conversion failed: exit status 69, output: ffmpeg version 8.0 Copyright (c) 2000-2025 the FFmpeg developers\n  built with Apple clang version 17.0.0 (clang-1700.0.13.3)\n  configuration: --prefix=/opt/homebrew/Cellar/ffmpeg/8.0 --enable-shared --enable-pthreads --enable-version3 --cc=clang --host-cflags= --host-ldflags='-Wl,-ld_classic' --enable-ffplay --enable-gnutls --enable-gpl --enable-libaom --enable-libaribb24 --enable-libbluray --enable-libdav1d --enable-libharfbuzz --enable-libjxl --enable-libmp3lame --enable-libopus --enable-librav1e --enable-librist --enable-librubberband --enable-libsnappy --enable-libsrt --enable-libssh --enable-libsvtav1 --enable-libtesseract --enable-libtheora --enable-libvidstab --enable-libvmaf --enable-libvorbis --enable-libvpx --enable-libwebp --enable-libx264 --enable-libx265 --enable-libxml2 --enable-libxvid --enable-lzma --enable-libfontconfig --enable-libfreetype --enable-frei0r --enable-libass --enable-libopencore-amrnb --enable-libopencore-amrwb --enable-libopenjpeg --enable-libspeex --enable-libsoxr --enable-libzmq --enable-libzimg --disable-libjack --disable-indev=jack --enable-videotoolbox --enable-audiotoolbox --enable-neon\n  libavutil      60.  8.100 / 60.  8.100\n  libavcodec     62. 11.100 / 62. 11.100\n  libavformat    62.  3.100 / 62.  3.100\n  libavdevice    62.  1.100 / 62.  1.100\n  libavfilter    11.  4.100 / 11.  4.100\n  libswscale      9.  1.100 /  9.  1.100\n  libswresample   6.  1.100 /  6.  1.100\n[mjpeg @ 0x87d06c380] No JPEG data found in image\n[image2 @ 0x87d040000] Could not find codec parameters for stream 0 (Video: mjpeg, none(bt470bg/unknown/unknown)): unspecified size\nConsider increasing the value for the 'analyzeduration' (0) and 'probesize' (5000000) options\nInput #0, image2, from '/Users/nameko_1/Downloads/test/pkg/converter/test_integration/test_3.jpg':\n  Duration: 00:00:00.04, start: 0.000000, bitrate: 5 kb/s\n  Stream #0:0: Video: mjpeg, none(bt470bg/unknown/unknown), 25 fps, 25 tbr, 25 tbn\nStream mapping:\n  Stream #0:0 -\u003e #0:0 (mjpeg (native) -\u003e jpegxl (libjxl))\nPress [q] to stop, [?] for help\n[mjpeg @ 0x87d06ce00] No JPEG data found in image\n[vist#0:0/mjpeg @ 0x87cc40300] [dec:mjpeg @ 0x87d038280] Error submitting packet to decoder: Invalid data found when processing input\n[vist#0:0/mjpeg @ 0x87cc40300] [dec:mjpeg @ 0x87d038280] Decode error rate 1 exceeds maximum 0.666667\n[vf#0:0 @ 0x87cc44500] Cannot determine format of input 0:0 after EOF\n[vf#0:0 @ 0x87cc44500] Task finished with error code: -1094995529 (Invalid data found when processing input)\n[vist#0:0/mjpeg @ 0x87cc40300] [dec:mjpeg @ 0x87d038280] Task finished with error code: -1145393733 (Error number -1145393733 occurred)\n[vf#0:0 @ 0x87cc44500] Terminating thread with return code -1094995529 (Invalid data found when processing input)\n[vost#0:0/libjxl @ 0x87d09c000] [enc:libjxl @ 0x87d03c1c0] Could not open encoder before EOF\n[vost#0:0/libjxl @ 0x87d09c000] Task finished with error code: -22 (Invalid argument)\n[vost#0:0/libjxl @ 0x87d09c000] Terminating thread with return code -22 (Invalid argument)\n[vist#0:0/mjpeg @ 0x87cc40300] [dec:mjpeg @ 0x87d038280] Terminating thread with return code -1145393733 (Error number -1145393733 occurred)\n[out#0/image2 @ 0x87d044240] Nothing was written into output file, because at least one of its streams received no packets.\nframe=    0 fps=0.0 q=0.0 Lsize=       0KiB time=N/A bitrate=N/A speed=N/A elapsed=0:00:00.00    \nConversion failed!\n",
      "time": "2025-09-01T21:42:03.281828+08:00"
    },
    {
      "file": "/Users/nameko_1/Downloads/test/pkg/converter/test_integration/test_0.jpg",
      "error": "both cjxl and FFmpeg lossless JXL conversion failed: exit status 69, output: ffmpeg version 8.0 Copyright (c) 2000-2025 the FFmpeg developers\n  built with Apple clang version 17.0.0 (clang-1700.0.13.3)\n  configuration: --prefix=/opt/homebrew/Cellar/ffmpeg/8.0 --enable-shared --enable-pthreads --enable-version3 --cc=clang --host-cflags= --host-ldflags='-Wl,-ld_classic' --enable-ffplay --enable-gnutls --enable-gpl --enable-libaom --enable-libaribb24 --enable-libbluray --enable-libdav1d --enable-libharfbuzz --enable-libjxl --enable-libmp3lame --enable-libopus --enable-librav1e --enable-librist --enable-librubberband --enable-libsnappy --enable-libsrt --enable-libssh --enable-libsvtav1 --enable-libtesseract --enable-libtheora --enable-libvidstab --enable-libvmaf --enable-libvorbis --enable-libvpx --enable-libwebp --enable-libx264 --enable-libx265 --enable-libxml2 --enable-libxvid --enable-lzma --enable-libfontconfig --enable-libfreetype --enable-frei0r --enable-libass --enable-libopencore-amrnb --enable-libopencore-amrwb --enable-libopenjpeg --enable-libspeex --enable-libsoxr --enable-libzmq --enable-libzimg --disable-libjack --disable-indev=jack --enable-videotoolbox --enable-audiotoolbox --enable-neon\n  libavutil      60.  8.100 / 60.  8.100\n  libavcodec     62. 11.100 / 62. 11.100\n  libavformat    62.  3.100 / 62.  3.100\n  libavdevice    62.  1.100 / 62.  1.100\n  libavfilter    11.  4.100 / 11.  4.100\n  libswscale      9.  1.100 /  9.  1.100\n  libswresample   6.  1.100 /  6.  1.100\n[mjpeg @ 0x7a2c50380] No JPEG data found in image\n[image2 @ 0x7a3034000] Could not find codec parameters for stream 0 (Video: mjpeg, none(bt470bg/unknown/unknown)): unspecified size\nConsider increasing the value for the 'analyzeduration' (0) and 'probesize' (5000000) options\nInput #0, image2, from '/Users/nameko_1/Downloads/test/pkg/converter/test_integration/test_0.jpg':\n  Duration: 00:00:00.04, start: 0.000000, bitrate: 5 kb/s\n  Stream #0:0: Video: mjpeg, none(bt470bg/unknown/unknown), 25 fps, 25 tbr, 25 tbn\nStream mapping:\n  Stream #0:0 -\u003e #0:0 (mjpeg (native) -\u003e jpegxl (libjxl))\nPress [q] to stop, [?] for help\n[mjpeg @ 0x7a2c50e00] No JPEG data found in image\n[vist#0:0/mjpeg @ 0x7a2c40300] [dec:mjpeg @ 0x7a3030280] Error submitting packet to decoder: Invalid data found when processing input\n[vist#0:0/mjpeg @ 0x7a2c40300] [dec:mjpeg @ 0x7a3030280] Decode error rate 1 exceeds maximum 0.666667\n[vist#0:0/mjpeg @ 0x7a2c40300] [dec:mjpeg @ 0x7a3030280] Task finished with error code: -1145393733 (Error number -1145393733 occurred)\n[vist#0:0/mjpeg @ 0x7a2c40300] [dec:mjpeg @ 0x7a3030280] Terminating thread with return code -1145393733 (Error number -1145393733 occurred)\n[vf#0:0 @ 0x7a2c38f00] Cannot determine format of input 0:0 after EOF\n[vf#0:0 @ 0x7a2c38f00] Task finished with error code: -1094995529 (Invalid data found when processing input)\n[vf#0:0 @ 0x7a2c38f00] Terminating thread with return code -1094995529 (Invalid data found when processing input)\n[vost#0:0/libjxl @ 0x7a2c80000] [enc:libjxl @ 0x7a2c481c0] Could not open encoder before EOF\n[vost#0:0/libjxl @ 0x7a2c80000] Task finished with error code: -22 (Invalid argument)\n[vost#0:0/libjxl @ 0x7a2c80000] Terminating thread with return code -22 (Invalid argument)\n[out#0/image2 @ 0x7a3028f00] Nothing was written into output file, because at least one of its streams received no packets.\nframe=    0 fps=0.0 q=0.0 Lsize=       0KiB time=N/A bitrate=N/A speed=N/A elapsed=0:00:00.00    \nConversion failed!\n",
      "time": "2025-09-01T21:42:03.281828+08:00"
    },
    {
      "file": "/Users/nameko_1/Downloads/test/pkg/converter/test_integration/test_4.jpg",
      "error": "both cjxl and FFmpeg lossless JXL conversion failed: exit status 69, output: ffmpeg version 8.0 Copyright (c) 2000-2025 the FFmpeg developers\n  built with Apple clang version 17.0.0 (clang-1700.0.13.3)\n  configuration: --prefix=/opt/homebrew/Cellar/ffmpeg/8.0 --enable-shared --enable-pthreads --enable-version3 --cc=clang --host-cflags= --host-ldflags='-Wl,-ld_classic' --enable-ffplay --enable-gnutls --enable-gpl --enable-libaom --enable-libaribb24 --enable-libbluray --enable-libdav1d --enable-libharfbuzz --enable-libjxl --enable-libmp3lame --enable-libopus --enable-librav1e --enable-librist --enable-librubberband --enable-libsnappy --enable-libsrt --enable-libssh --enable-libsvtav1 --enable-libtesseract --enable-libtheora --enable-libvidstab --enable-libvmaf --enable-libvorbis --enable-libvpx --enable-libwebp --enable-libx264 --enable-libx265 --enable-libxml2 --enable-libxvid --enable-lzma --enable-libfontconfig --enable-libfreetype --enable-frei0r --enable-libass --enable-libopencore-amrnb --enable-libopencore-amrwb --enable-libopenjpeg --enable-libspeex --enable-libsoxr --enable-libzmq --enable-libzimg --disable-libjack --disable-indev=jack --enable-videotoolbox --enable-audiotoolbox --enable-neon\n  libavutil      60.  8.100 / 60.  8.100\n  libavcodec     62. 11.100 / 62. 11.100\n  libavformat    62.  3.100 / 62.  3.100\n  libavdevice    62.  1.100 / 62.  1.100\n  libavfilter    11.  4.100 / 11.  4.100\n  libswscale      9.  1.100 /  9.  1.100\n  libswresample   6.  1.100 /  6.  1.100\n[mjpeg @ 0xc5706c380] No JPEG data found in image\n[image2 @ 0xc57040000] Could not find codec parameters for stream 0 (Video: mjpeg, none(bt470bg/unknown/unknown)): unspecified size\nConsider increasing the value for the 'analyzeduration' (0) and 'probesize' (5000000) options\nInput #0, image2, from '/Users/nameko_1/Downloads/test/pkg/converter/test_integration/test_4.jpg':\n  Duration: 00:00:00.04, start: 0.000000, bitrate: 5 kb/s\n  Stream #0:0: Video: mjpeg, none(bt470bg/unknown/unknown), 25 fps, 25 tbr, 25 tbn\nStream mapping:\n  Stream #0:0 -\u003e #0:0 (mjpeg (native) -\u003e jpegxl (libjxl))\nPress [q] to stop, [?] for help\n[mjpeg @ 0xc5706ce00] No JPEG data found in image\n[vist#0:0/mjpeg @ 0xc56c40300] [dec:mjpeg @ 0xc57038280] Error submitting packet to decoder: Invalid data found when processing input\n[vist#0:0/mjpeg @ 0xc56c40300] [dec:mjpeg @ 0xc57038280] Decode error rate 1 exceeds maximum 0.666667\n[vf#0:0 @ 0xc56c44500] Cannot determine format of input 0:0 after EOF\n[vf#0:0 @ 0xc56c44500] Task finished with error code: -1094995529 (Invalid data found when processing input)\n[vist#0:0/mjpeg @ 0xc56c40300] [dec:mjpeg @ 0xc57038280] Task finished with error code: -1145393733 (Error number -1145393733 occurred)\n[vost#0:0/libjxl @ 0xc57098000] [enc:libjxl @ 0xc5703c1c0] Could not open encoder before EOF\n[vost#0:0/libjxl @ 0xc57098000] Task finished with error code: -22 (Invalid argument)\n[vost#0:0/libjxl @ 0xc57098000] Terminating thread with return code -22 (Invalid argument)\n[vist#0:0/mjpeg @ 0xc56c40300] [dec:mjpeg @ 0xc57038280] Terminating thread with return code -1145393733 (Error number -1145393733 occurred)\n[vf#0:0 @ 0xc56c44500] Terminating thread with return code -1094995529 (Invalid data found when processing input)\n[out#0/image2 @ 0xc57044240] Nothing was written into output file, because at least one of its streams received no packets.\nframe=    0 fps=0.0 q=0.0 Lsize=       0KiB time=N/A bitrate=N/A speed=N/A elapsed=0:00:00.00    \nConversion failed!\n",
      "time": "2025-09-01T21:42:03.281829+08:00"
    },
    {
      "file": "/Users/nameko_1/Downloads/test/pkg/converter/test_integration/test_2.jpg",
      "error": "both cjxl and FFmpeg lossless JXL conversion failed: exit status 69, output: ffmpeg version 8.0 Copyright (c) 2000-2025 the FFmpeg developers\n  built with Apple clang version 17.0.0 (clang-1700.0.13.3)\n  configuration: --prefix=/opt/homebrew/Cellar/ffmpeg/8.0 --enable-shared --enable-pthreads --enable-version3 --cc=clang --host-cflags= --host-ldflags='-Wl,-ld_classic' --enable-ffplay --enable-gnutls --enable-gpl --enable-libaom --enable-libaribb24 --enable-libbluray --enable-libdav1d --enable-libharfbuzz --enable-libjxl --enable-libmp3lame --enable-libopus --enable-librav1e --enable-librist --enable-librubberband --enable-libsnappy --enable-libsrt --enable-libssh --enable-libsvtav1 --enable-libtesseract --enable-libtheora --enable-libvidstab --enable-libvmaf --enable-libvorbis --enable-libvpx --enable-libwebp --enable-libx264 --enable-libx265 --enable-libxml2 --enable-libxvid --enable-lzma --enable-libfontconfig --enable-libfreetype --enable-frei0r --enable-libass --enable-libopencore-amrnb --enable-libopencore-amrwb --enable-libopenjpeg --enable-libspeex --enable-libsoxr --enable-libzmq --enable-libzimg --disable-libjack --disable-indev=jack --enable-videotoolbox --enable-audiotoolbox --enable-neon\n  libavutil      60.  8.100 / 60.  8.100\n  libavcodec     62. 11.100 / 62. 11.100\n  libavformat    62.  3.100 / 62.  3.100\n  libavdevice    62.  1.100 / 62.  1.100\n  libavfilter    11.  4.100 / 11.  4.100\n  libswscale      9.  1.100 /  9.  1.100\n  libswresample   6.  1.100 /  6.  1.100\n[mjpeg @ 0xc6ac70380] No JPEG data found in image\n[image2 @ 0xc6b014000] Could not find codec parameters for stream 0 (Video: mjpeg, none(bt470bg/unknown/unknown)): unspecified size\nConsider increasing the value for the 'analyzeduration' (0) and 'probesize' (5000000) options\nInput #0, image2, from '/Users/nameko_1/Downloads/test/pkg/converter/test_integration/test_2.jpg':\n  Duration: 00:00:00.04, start: 0.000000, bitrate: 5 kb/s\n  Stream #0:0: Video: mjpeg, none(bt470bg/unknown/unknown), 25 fps, 25 tbr, 25 tbn\nStream mapping:\n  Stream #0:0 -\u003e #0:0 (mjpeg (native) -\u003e jpegxl (libjxl))\nPress [q] to stop, [?] for help\n[mjpeg @ 0xc6ac70e00] No JPEG data found in image\n[vist#0:0/mjpeg @ 0xc6ac60300] [dec:mjpeg @ 0xc6b010280] Error submitting packet to decoder: Invalid data found when processing input\n[vist#0:0/mjpeg @ 0xc6ac60300] [dec:mjpeg @ 0xc6b010280] Decode error rate 1 exceeds maximum 0.666667\n[vist#0:0/mjpeg @ 0xc6ac60300] [dec:mjpeg @ 0xc6b010280] Task finished with error code: -1145393733 (Error number -1145393733 occurred)\n[vf#0:0 @ 0xc6ac58f00] Cannot determine format of input 0:0 after EOF\n[vf#0:0 @ 0xc6ac58f00] Task finished with error code: -1094995529 (Invalid data found when processing input)\n[vf#0:0 @ 0xc6ac58f00] Terminating thread with return code -1094995529 (Invalid data found when processing input)\n[vost#0:0/libjxl @ 0xc6aca0000] [enc:libjxl @ 0xc6ac681c0] Could not open encoder before EOF\n[vost#0:0/libjxl @ 0xc6aca0000] Task finished with error code: -22 (Invalid argument)\n[vost#0:0/libjxl @ 0xc6aca0000] Terminating thread with return code -22 (Invalid argument)\n[vist#0:0/mjpeg @ 0xc6ac60300] [dec:mjpeg @ 0xc6b010280] Terminating thread with return code -1145393733 (Error number -1145393733 occurred)\n[out#0/image2 @ 0xc6b018240] Nothing was written into output file, because at least one of its streams received no packets.\nframe=    0 fps=0.0 q=0.0 Lsize=       0KiB time=N/A bitrate=N/A speed=N/A elapsed=0:00:00.00    \nConversion failed!\n",
      "time": "2025-09-01T21:42:03.281829+08:00"
    }
  ]
}